<svg version="1.1" xmlns="http://www.w3.org/2000/svg" style="display: block;" viewBox="0 0 2048 2048" width="515" height="515" preserveAspectRatio="none">
<defs>
	<linearGradient id="Gradient1" gradientUnits="userSpaceOnUse" x1="1043.09" y1="1056.03" x2="1023.16" y2="1386.25">
		<stop class="stop0" offset="0" stop-opacity="1" stop-color="rgb(41,24,32)"/>
		<stop class="stop1" offset="1" stop-opacity="1" stop-color="rgb(40,88,78)"/>
	</linearGradient>
	<linearGradient id="Gradient2" gradientUnits="userSpaceOnUse" x1="1309.91" y1="1145.45" x2="1258.09" y2="1090.55">
		<stop class="stop0" offset="0" stop-opacity="1" stop-color="rgb(35,50,52)"/>
		<stop class="stop1" offset="1" stop-opacity="1" stop-color="rgb(61,78,74)"/>
	</linearGradient>
	<linearGradient id="Gradient3" gradientUnits="userSpaceOnUse" x1="1394.14" y1="1088.2" x2="1453.49" y2="1134.28">
		<stop class="stop0" offset="0" stop-opacity="1" stop-color="rgb(128,186,144)"/>
		<stop class="stop1" offset="1" stop-opacity="1" stop-color="rgb(186,204,169)"/>
	</linearGradient>
	<linearGradient id="Gradient4" gradientUnits="userSpaceOnUse" x1="537.974" y1="1044.83" x2="556.498" y2="1099.57">
		<stop class="stop0" offset="0" stop-opacity="1" stop-color="rgb(67,145,106)"/>
		<stop class="stop1" offset="1" stop-opacity="1" stop-color="rgb(113,184,132)"/>
	</linearGradient>
	<linearGradient id="Gradient5" gradientUnits="userSpaceOnUse" x1="1236.92" y1="371.104" x2="1294.51" y2="355.507">
		<stop class="stop0" offset="0" stop-opacity="1" stop-color="rgb(45,71,66)"/>
		<stop class="stop1" offset="1" stop-opacity="1" stop-color="rgb(79,104,93)"/>
	</linearGradient>
</defs>
<path transform="translate(0,0)" fill="rgb(40,48,49)" d="M 1148.49 131.33 C 1155.61 131.828 1167.18 135.724 1173.42 139.158 C 1197.58 152.454 1223.71 162.507 1248.21 174.472 C 1314.24 206.708 1379.45 241.004 1445.57 273.057 L 1580.08 338.33 C 1584.33 340.363 1588.61 342.16 1592.9 344.078 C 1642.5 366.204 1690.45 392.299 1739.32 416.024 C 1743.13 417.875 1747.58 420.16 1751.16 422.327 C 1755.04 424.695 1758.63 427.511 1761.85 430.716 C 1778.49 447.304 1773.99 487.445 1773.98 509.949 L 1773.83 614.913 C 1724.55 638.562 1725.08 622.188 1726.29 679.32 C 1737.89 686.811 1765.4 697.037 1772.21 705.266 C 1775 715.351 1773.96 774.979 1773.95 790.065 L 1773.89 969.729 L 1773.95 1137.57 C 1773.97 1160.81 1776.1 1223.26 1770.59 1242.5 C 1763.33 1267.87 1708.14 1284.62 1683.85 1296.1 C 1602.2 1334.6 1519 1369.56 1437.53 1408.41 C 1434.22 1409.99 1436.5 1498.91 1435.99 1508.91 C 1435.42 1519.93 1439.15 1537.11 1439.29 1548.68 L 1440.01 1685.92 C 1440 1712.52 1442.01 1749.16 1433.71 1774.12 C 1427.31 1793.34 1381.6 1808 1363.53 1816.21 L 1217.19 1881.41 L 1098.38 1935.2 C 1080.54 1943.25 1060.89 1952.22 1042.8 1959.54 C 1030.79 1962.1 1017.29 1961.63 1005.63 1958.38 C 990.822 1954.26 978.761 1946.62 965.081 1940.42 C 933.488 1926.09 901.611 1912.17 870.383 1897.13 C 838.896 1884.56 808.609 1868.72 777.754 1854.72 C 752.434 1843.23 640.765 1797.08 628.661 1784.77 C 621.645 1777.63 618.791 1768.1 617.458 1758.43 C 615.324 1742.94 616.053 1726.95 616.08 1711.35 L 616.157 1646.28 L 616.055 1410.55 C 593.533 1397.64 559.271 1384.11 534.934 1372.82 L 370.857 1297.35 C 352.135 1288.88 332.666 1280.42 313.691 1272.49 C 274.249 1256 282.222 1218.37 282.23 1182.02 L 282.246 1082.75 C 282.182 958.122 283.829 829.623 281.984 705.337 C 298.344 697.858 313.969 689.081 330.542 681.693 C 330.155 672.377 332.237 645.394 323.243 640.693 C 309.869 633.702 296.254 628.261 282.893 620.516 C 279.635 569.352 283.746 512.438 282.483 460.916 C 282.08 444.473 289.648 432.388 303.238 423.298 C 322.013 410.739 342.068 402.537 362.474 392.899 L 442.258 355.061 C 470.852 341.648 499.109 325.566 528.105 312.845 C 533.737 329.872 534.966 346.442 536.81 364.146 C 537.098 366.916 538.634 367.719 540.692 369.004 C 547.921 369.504 568.023 359.785 576.818 356.415 C 572.696 346.686 569.65 298.853 574.35 290.185 C 594.545 276.288 621.768 267.326 644.01 256.232 C 671.959 242.293 699.696 227.788 727.852 214.283 C 741.592 207.693 755.859 202.351 769.513 195.535 C 786.656 186.977 803.596 177.831 820.928 169.678 C 831.154 164.867 841.729 160.811 851.949 155.989 C 863.475 150.551 874.7 143.945 886.683 139.57 C 896.851 135.857 907.725 134.148 918.525 135.258 C 949.513 138.442 1006.61 180.513 1029.36 178.458 C 1039.18 177.571 1049.78 171.089 1058.79 167.154 C 1087.66 154.553 1117.67 137.838 1148.49 131.33 z"/>
<path transform="translate(0,0)" fill="rgb(219,225,196)" d="M 833.114 284.526 C 860.863 274.774 889.116 258.714 917.78 248.524 C 950.563 258.789 994.088 278.48 1025.69 292.695 C 1056.72 278.897 1102.8 256.747 1135.64 251.173 C 1143.89 249.772 1217.57 286.002 1230.97 292.207 L 1411.1 376.704 C 1462.39 400.766 1513.5 425.227 1564.42 450.085 C 1588.39 461.582 1629.57 479.612 1650.99 492.463 C 1651.49 493.054 1652.14 493.542 1652.49 494.236 C 1656.57 502.481 1655.03 755.872 1653.91 782.344 C 1654.19 789.993 1653.94 813.168 1655.85 818.736 C 1657.5 834.448 1656.81 854.691 1656.72 870.815 L 1656.39 949.13 L 1656.24 1091.2 C 1656.22 1116.42 1658.02 1160.38 1653.48 1183.57 C 1651.85 1191.89 1562.42 1229.97 1553.14 1234.12 L 1426.37 1290.92 C 1401.34 1302.25 1376.39 1313.75 1351.51 1325.4 C 1342.17 1329.78 1326.96 1337.92 1318.21 1341.18 C 1316.44 1371.58 1318.69 1405.34 1317.44 1436.32 C 1317.53 1465.5 1316.04 1509.3 1317.88 1537.25 C 1299.84 1542.78 1282.59 1554.81 1267.72 1560.09 C 1251.66 1567.94 1219.62 1585.31 1204.38 1590.1 C 1203.55 1541.62 1199.63 1495.77 1201.29 1446.64 C 1176.28 1455.69 1142.39 1472.02 1117.69 1483.2 C 1121.79 1502.12 1122.51 1528.21 1127.03 1547.92 C 1127.64 1550.55 1128.8 1558.75 1129.69 1560.81 C 1125.07 1561.98 1121.16 1564.16 1116.79 1566.04 C 1087.42 1578.7 1058.36 1593.35 1028.72 1605.32 C 1026.56 1605.86 1023.84 1606.74 1021.81 1605.53 C 1011.73 1599.56 927.02 1560.05 920.903 1561.61 C 925.352 1542.75 928.322 1524.06 931.107 1504.9 C 932.114 1497.98 932.925 1490.09 935.396 1483.62 C 918.64 1475.37 870.825 1453.4 854.204 1448.07 C 854.095 1478.35 854.362 1509.3 852.933 1539.48 C 852.124 1556.57 849.367 1573.53 848.572 1590.98 C 823.722 1575.66 793.559 1564.48 767.144 1551.54 C 757.956 1547.03 746.186 1542.28 737.644 1536.94 C 736.887 1505.33 737.464 1472.51 737.439 1440.77 C 737.101 1407.07 737.01 1373.37 737.164 1339.67 C 685.755 1317.77 636.846 1294.44 586.107 1271.84 L 484.814 1226.77 C 464.919 1217.86 415.953 1197.99 402.23 1185.5 C 396.756 1174.02 398.898 1102.35 398.918 1084.69 L 398.721 946.29 L 398.834 831.512 C 398.87 811.577 398.432 788.701 399.385 769.005 C 397.54 756.176 398.293 724.973 398.33 710.931 L 398.977 597.736 L 398.843 533.674 C 398.811 522.33 398.463 509.597 399.69 498.288 C 400.017 495.282 402.206 493.97 404.597 492.413 C 414.635 483.399 477.021 456.333 492.844 448.859 C 544.125 424.101 595.59 399.727 647.236 375.74 C 684.576 358.242 721.544 339.624 759.643 324.03 C 772.128 318.919 782.094 312.855 795.121 309.067 C 812.64 314.809 840.896 329.848 857.179 339.803 C 869.498 334.199 887.418 326.404 898.896 319.584 C 885.344 310.992 847.344 290.244 833.114 284.526 z"/>
<path transform="translate(0,0)" fill="rgb(243,243,222)" d="M 833.114 284.526 C 860.863 274.774 889.116 258.714 917.78 248.524 C 950.563 258.789 994.088 278.48 1025.69 292.695 C 1056.72 278.897 1102.8 256.747 1135.64 251.173 C 1143.89 249.772 1217.57 286.002 1230.97 292.207 L 1411.1 376.704 C 1462.39 400.766 1513.5 425.227 1564.42 450.085 C 1588.39 461.582 1629.57 479.612 1650.99 492.463 L 1649.57 492.984 C 1646.59 494.064 1643.86 494.214 1641.04 495.415 C 1623.08 503.066 1605.41 512.204 1587.65 520.269 C 1560.09 532.781 1532.2 545.432 1505.12 558.937 C 1458.39 578.594 1412.23 601.342 1365.65 621.524 C 1357.94 624.866 1350.1 628.019 1342.48 631.556 L 1255.48 671.683 C 1246.07 676.008 1200.27 697.402 1192.22 698.431 L 1192.97 700.448 C 1182.68 714.013 1157.93 717.517 1143.34 723.473 C 1130.01 728.909 1117.48 735.558 1103.83 740.711 L 1100.27 741.59 C 1089.46 744.681 1050.04 754.933 1040.17 756.011 C 1025.68 756.03 1006.81 753.803 992.415 752.281 C 979.195 750.883 968.326 744.884 957.612 737.639 C 954.388 735.459 950.706 734.639 948.281 731.411 L 948.959 729.338 C 938.691 726.995 927.144 725.717 917.285 722.154 C 877.921 707.93 839.89 687.512 802.06 670.086 L 628.609 591.451 C 606.409 581.606 576.536 566.039 554.109 559.452 C 542.877 552.021 514.45 540.098 501.165 533.746 C 477.777 522.563 452.719 511.634 429.088 500.652 C 421.362 497.062 411.547 495.627 404.597 492.413 C 414.635 483.399 477.021 456.333 492.844 448.859 C 544.125 424.101 595.59 399.727 647.236 375.74 C 684.576 358.242 721.544 339.624 759.643 324.03 C 772.128 318.919 782.094 312.855 795.121 309.067 C 812.64 314.809 840.896 329.848 857.179 339.803 C 869.498 334.199 887.418 326.404 898.896 319.584 C 885.344 310.992 847.344 290.244 833.114 284.526 z"/>
<path transform="translate(0,0)" fill="rgb(165,189,154)" d="M 1110.08 657.798 C 1136.84 671.418 1166.36 684.624 1192.22 698.431 L 1192.97 700.448 C 1182.68 714.013 1157.93 717.517 1143.34 723.473 C 1130.01 728.909 1117.48 735.558 1103.83 740.711 L 1100.55 740.188 C 1092.02 733.554 1083.16 726.267 1074.75 719.655 C 1060.34 708.315 1064.24 694.659 1056.08 682.136 C 1073.13 675.47 1093.31 665.59 1110.08 657.798 z"/>
<path transform="translate(0,0)" fill="rgb(198,207,177)" d="M 948.959 729.338 C 976.372 722.326 1025.95 695.154 1056.08 682.136 C 1064.24 694.659 1060.34 708.315 1074.75 719.655 C 1083.16 726.267 1092.02 733.554 1100.55 740.188 L 1103.83 740.711 L 1100.27 741.59 C 1089.46 744.681 1050.04 754.933 1040.17 756.011 C 1025.68 756.03 1006.81 753.803 992.415 752.281 C 979.195 750.883 968.326 744.884 957.612 737.639 C 954.388 735.459 950.706 734.639 948.281 731.411 L 948.959 729.338 z"/>
<path transform="translate(0,0)" fill="rgb(123,176,131)" d="M 1350.67 505.845 C 1356.85 504.744 1375.18 511.089 1380.89 514.232 C 1396.88 520.856 1413.26 528.079 1427.21 538.355 C 1412.45 546.956 1394.67 555.583 1379.13 562.824 C 1367.64 569.297 1351.18 576.327 1338.92 581.811 L 1332.13 585.545 C 1319.4 593.317 1300.13 603.125 1286.2 609.14 C 1272.9 603.013 1261.02 595.639 1248.05 589.212 C 1243.35 587.521 1232.82 582.05 1227.88 579.649 C 1224.28 579.087 1213.09 572.713 1209.56 570.787 C 1224.21 563.396 1239.78 556.804 1254.61 549.566 C 1286.94 533.789 1317.17 518.942 1350.67 505.845 z"/>
<path transform="translate(0,0)" fill="rgb(54,132,99)" d="M 1350.67 505.845 C 1356.85 504.744 1375.18 511.089 1380.89 514.232 C 1396.88 520.856 1413.26 528.079 1427.21 538.355 C 1412.45 546.956 1394.67 555.583 1379.13 562.824 C 1367.64 569.297 1351.18 576.327 1338.92 581.811 C 1334 574.684 1330.51 531.234 1334.05 523.653 C 1337.9 520.475 1342.53 515.832 1346.24 512.328 C 1349.75 510.362 1348.73 510.615 1350.67 505.845 z"/>
<path transform="translate(0,0)" fill="rgb(40,82,72)" d="M 1380.89 514.232 C 1396.88 520.856 1413.26 528.079 1427.21 538.355 C 1412.45 546.956 1394.67 555.583 1379.13 562.824 C 1375.44 557.847 1376.93 518.342 1380.89 514.232 z"/>
<path transform="translate(0,0)" fill="rgb(40,82,72)" d="M 1253.05 584.392 C 1278.63 575.824 1280.61 579.563 1305.68 585.149 C 1312.19 586.6 1322.15 582.788 1329.83 583.956 L 1332.13 585.545 C 1319.4 593.317 1300.13 603.125 1286.2 609.14 C 1272.9 603.013 1261.02 595.639 1248.05 589.212 C 1247.99 587.478 1248.1 587.848 1248.7 586.091 L 1253.05 584.392 z"/>
<path transform="translate(0,0)" fill="rgb(54,132,99)" d="M 1227.88 579.649 L 1228.84 577.644 C 1236.92 575.802 1243.53 584.183 1253.05 584.392 L 1248.7 586.091 C 1248.1 587.848 1247.99 587.478 1248.05 589.212 C 1243.35 587.521 1232.82 582.05 1227.88 579.649 z"/>
<path transform="translate(0,0)" fill="rgb(198,207,177)" d="M 1334.05 523.653 C 1331.71 520.812 1332.16 522.376 1332.46 518.865 C 1335.47 514.7 1341.09 510.548 1346.24 512.328 C 1342.53 515.832 1337.9 520.475 1334.05 523.653 z"/>
<path transform="translate(0,0)" fill="url(#Gradient5)" d="M 1267.23 347.152 C 1279.2 346.261 1291 355.32 1301.15 361.621 C 1293.19 366.802 1275.57 378.572 1267.22 380.894 C 1253.58 379.014 1240.91 372.952 1230.32 364.307 C 1241.09 354.849 1253.57 350.533 1267.23 347.152 z"/>
<path transform="translate(0,0)" fill="rgb(54,132,99)" d="M 1065.74 503.001 C 1068.15 502.743 1067.32 502.747 1069.71 503.245 C 1072.69 508.273 1071.55 530.136 1071.42 536.512 C 1063.92 539.676 1057.47 542.229 1049.8 544.935 L 1032.09 536.978 C 1027.62 534.824 1022.45 531.476 1018.14 528.865 C 1033.39 518.865 1048.8 509.857 1065.74 503.001 z"/>
<path transform="translate(0,0)" fill="rgb(198,207,177)" d="M 928.064 414.139 C 938.076 415.462 957.691 425.932 967.576 430.796 C 956.406 436.159 948.731 439.551 937.269 443.936 C 924.302 448.243 910.52 439.417 899.056 433.633 C 911.625 423.887 909.904 418.049 928.064 414.139 z"/>
<path transform="translate(0,0)" fill="rgb(40,48,49)" d="M 1199.06 432.923 C 1207.69 431.496 1229.47 447.44 1237.09 452.715 C 1226.84 457.459 1218.58 462.811 1207.32 464.805 C 1197.6 462.592 1176.17 451.642 1167.95 446.098 C 1178.29 442.108 1188.86 437.338 1199.06 432.923 z"/>
<path transform="translate(0,0)" fill="rgb(123,176,131)" d="M 1650.99 492.463 C 1651.49 493.054 1652.14 493.542 1652.49 494.236 C 1656.57 502.481 1655.03 755.872 1653.91 782.344 C 1654.19 789.993 1653.94 813.168 1655.85 818.736 C 1652.56 819.201 1650.93 821.703 1649.32 821.794 C 1640.17 822.314 1628.41 813.66 1621.43 808.458 C 1613.81 804.43 1609 798.766 1598.66 794.06 C 1598.03 789.2 1597.67 783.799 1597.48 778.886 C 1595.35 724.479 1597.05 669.837 1597.66 615.392 C 1582.56 621.384 1569.44 626.313 1554.3 632.839 C 1548.32 624.335 1536.54 616.907 1526.37 613.86 C 1524.01 613.156 1524.59 614.356 1522.11 611.619 C 1519.56 599.129 1509.1 577.092 1505.12 558.937 C 1532.2 545.432 1560.09 532.781 1587.65 520.269 C 1605.41 512.204 1623.08 503.066 1641.04 495.415 C 1643.86 494.214 1646.59 494.064 1649.57 492.984 L 1650.99 492.463 z"/>
<path transform="translate(0,0)" fill="rgb(119,139,122)" d="M 1621.43 808.458 C 1625.27 806.256 1630.3 814.723 1635.64 814.779 C 1647.63 810.044 1642.35 814.989 1652.39 813.971 C 1652.47 810.672 1653.17 808.714 1651.66 806.589 C 1649.02 807.501 1647.15 808.321 1644.35 808.548 C 1644.77 806.186 1652.32 805.165 1652.46 803.456 C 1652.88 798.439 1651.15 785.888 1653.91 782.344 C 1654.19 789.993 1653.94 813.168 1655.85 818.736 C 1652.56 819.201 1650.93 821.703 1649.32 821.794 C 1640.17 822.314 1628.41 813.66 1621.43 808.458 z"/>
<path transform="translate(0,0)" fill="rgb(45,104,86)" d="M 399.385 769.005 C 397.54 756.176 398.293 724.973 398.33 710.931 L 398.977 597.736 L 398.843 533.674 C 398.811 522.33 398.463 509.597 399.69 498.288 C 400.017 495.282 402.206 493.97 404.597 492.413 C 411.547 495.627 421.362 497.062 429.088 500.652 C 452.719 511.634 477.777 522.563 501.165 533.746 C 514.45 540.098 542.877 552.021 554.109 559.452 C 554.031 588.831 553.09 623.967 554.267 652.859 C 524.767 641.03 492.425 625.12 463.12 611.903 C 462.995 649.893 464.037 696.301 462.323 733.764 C 448.637 741.826 409.141 761.768 399.385 769.005 z"/>
<path transform="translate(0,0)" fill="rgb(45,104,86)" d="M 1029.84 1520.97 C 1056.98 1511.39 1090.65 1495.13 1117.69 1483.2 C 1121.79 1502.12 1122.51 1528.21 1127.03 1547.92 C 1127.64 1550.55 1128.8 1558.75 1129.69 1560.81 C 1125.07 1561.98 1121.16 1564.16 1116.79 1566.04 C 1087.42 1578.7 1058.36 1593.35 1028.72 1605.32 C 1026.56 1605.86 1023.84 1606.74 1021.81 1605.53 C 1011.73 1599.56 927.02 1560.05 920.903 1561.61 C 925.352 1542.75 928.322 1524.06 931.107 1504.9 C 932.114 1497.98 932.925 1490.09 935.396 1483.62 C 956.525 1494.25 978.297 1505.1 1000.58 1513.1 C 1010.45 1516.64 1019.92 1517.93 1029.84 1520.97 z"/>
<path transform="translate(0,0)" fill="rgb(243,243,222)" d="M 1100.27 741.59 C 1103.92 744.178 1103.34 754.417 1103.13 758.999 C 1101.21 801.235 1105.67 849.08 1102.3 890.76 C 1075.33 904.304 1053.67 910.7 1029.01 922.196 C 1026.8 900.741 1027.81 861.64 1027.92 838.593 C 1028.04 812.882 1026.66 781.964 1027.52 757.046 C 1032.01 756.964 1035.84 757.167 1040.17 756.011 C 1050.04 754.933 1089.46 744.681 1100.27 741.59 z"/>
<path transform="translate(0,0)" fill="rgb(165,189,154)" d="M 1317.44 1436.32 C 1317.53 1465.5 1316.04 1509.3 1317.88 1537.25 C 1299.84 1542.78 1282.59 1554.81 1267.72 1560.09 C 1263.46 1548.65 1265.97 1471.77 1266.86 1456.5 C 1281.66 1452.35 1308.12 1438.12 1317.44 1436.32 z"/>
<path transform="translate(0,0)" fill="rgb(165,189,154)" d="M 1522.11 611.619 C 1524.59 614.356 1524.01 613.156 1526.37 613.86 C 1536.54 616.907 1548.32 624.335 1554.3 632.839 C 1547.76 636.774 1532.81 639.944 1523.88 644.162 C 1523.88 638.509 1522.64 617.736 1522.11 611.619 z"/>
<path transform="translate(0,0)" fill="rgb(40,48,49)" d="M 601.474 678.329 C 629.371 686.945 654.845 700.588 681.165 712.881 C 712.182 727.369 743.12 741.884 774.734 755.031 C 776.169 755.628 776.708 756.526 777.447 757.767 C 785.564 758.845 907.309 817.549 919.702 825.075 C 920.305 851.476 921.176 880.48 918.491 906.756 C 911.739 904.763 901.025 900.277 894.48 897.053 L 894.097 902.782 C 895.557 911.321 894.906 948.095 894.838 958.268 C 894.546 1002.52 895.266 1049.99 892.85 1094.18 L 883.952 1097.75 C 850.857 1116.72 806.096 1134.61 771.353 1150.68 C 761.901 1155.05 737.523 1167.44 729.243 1170.31 C 700.921 1163.86 664.692 1141.26 636.318 1131.38 C 632.434 1130.03 615.421 1122.88 612.121 1120.75 C 596.33 1114.21 581.712 1108.26 566.87 1099.68 C 555.609 1094.62 544.796 1088.2 533.199 1083.65 C 518.028 1077.7 501.843 1072.79 487.135 1065.79 C 471.4 1058.37 464.001 1058.59 464.168 1039.67 C 464.521 999.709 463.071 958.719 464.131 918.869 C 464.728 896.416 461.718 857.793 465.872 837.115 C 471.521 832.712 509.21 817.136 518.491 813.258 C 547.5 801.138 581.942 781.73 610.501 771.285 C 607.778 771.143 607.711 771.169 605.123 770.365 C 598.692 760.31 600.789 694.277 601.474 678.329 z"/>
<path transform="translate(0,0)" fill="rgb(243,243,222)" d="M 601.474 678.329 C 629.371 686.945 654.845 700.588 681.165 712.881 C 712.182 727.369 743.12 741.884 774.734 755.031 C 776.169 755.628 776.708 756.526 777.447 757.767 C 776.745 772.844 776.981 832.079 772.931 841.893 C 740.412 825.188 706.546 810.63 673.398 795.15 C 655.801 786.933 637.545 777.769 619.397 770.742 C 616.696 769.697 613.247 770.589 610.501 771.285 C 607.778 771.143 607.711 771.169 605.123 770.365 C 598.692 760.31 600.789 694.277 601.474 678.329 z"/>
<path transform="translate(0,0)" fill="rgb(40,82,72)" d="M 487.135 1065.79 C 471.4 1058.37 464.001 1058.59 464.168 1039.67 C 464.521 999.709 463.071 958.719 464.131 918.869 C 464.728 896.416 461.718 857.793 465.872 837.115 C 466.622 837.863 467.978 839.313 469.03 839.6 C 486.674 844.416 502.753 851.887 519.467 859.28 C 523.705 912.488 517.736 966.801 523.132 1019.99 C 524.347 1031.97 529.352 1038.25 539.239 1044.34 C 525.987 1048.2 509.295 1053.63 496.029 1058.11 C 493.857 1058.84 490.132 1063.46 488.806 1065.41 L 487.135 1065.79 z"/>
<path transform="translate(0,0)" fill="rgb(54,132,99)" d="M 777.447 757.767 C 785.564 758.845 907.309 817.549 919.702 825.075 C 920.305 851.476 921.176 880.48 918.491 906.756 C 911.739 904.763 901.025 900.277 894.48 897.053 L 895.669 896.02 C 890.368 888.092 788.415 849.488 772.931 841.893 C 776.981 832.079 776.745 772.844 777.447 757.767 z"/>
<path transform="translate(0,0)" fill="rgb(40,82,72)" d="M 894.097 902.782 C 895.557 911.321 894.906 948.095 894.838 958.268 C 894.546 1002.52 895.266 1049.99 892.85 1094.18 L 883.952 1097.75 C 881.534 1097.46 879.86 1095.65 877.439 1095.62 C 865.937 1095.46 853.022 1095.13 841.646 1096.85 C 843.505 1094.57 846.121 1090.15 847.799 1087.52 C 848.132 1036.76 847.029 985.079 851.668 934.74 C 861.952 925.99 880.64 917.354 893.519 913.581 L 894.097 902.782 z"/>
<path transform="translate(0,0)" fill="rgb(54,132,99)" d="M 841.646 1096.85 C 853.022 1095.13 865.937 1095.46 877.439 1095.62 C 879.86 1095.65 881.534 1097.46 883.952 1097.75 C 850.857 1116.72 806.096 1134.61 771.353 1150.68 C 761.901 1155.05 737.523 1167.44 729.243 1170.31 C 700.921 1163.86 664.692 1141.26 636.318 1131.38 C 632.434 1130.03 615.421 1122.88 612.121 1120.75 L 613.8 1119.93 C 616.889 1113.32 656.692 1100.2 664.938 1098.63 C 689.327 1108 718.292 1125.97 742.216 1132.05 C 771.91 1139.6 816.897 1112.2 841.646 1096.85 z"/>
<path transform="translate(0,0)" fill="url(#Gradient4)" d="M 487.135 1065.79 L 488.806 1065.41 C 490.132 1063.46 493.857 1058.84 496.029 1058.11 C 509.295 1053.63 525.987 1048.2 539.239 1044.34 C 557.168 1052.68 588.249 1070.19 605.083 1076.31 C 603.488 1080.08 572.5 1096.73 566.87 1099.68 C 555.609 1094.62 544.796 1088.2 533.199 1083.65 C 518.028 1077.7 501.843 1072.79 487.135 1065.79 z"/>
<path transform="translate(0,0)" fill="rgb(45,104,86)" d="M 605.083 1076.31 C 612.398 1079.94 615.96 1078.19 621.941 1080.72 C 634.109 1085.85 652.13 1096.04 664.938 1098.63 C 656.692 1100.2 616.889 1113.32 613.8 1119.93 L 612.121 1120.75 C 596.33 1114.21 581.712 1108.26 566.87 1099.68 C 572.5 1096.73 603.488 1080.08 605.083 1076.31 z"/>
<path transform="translate(0,0)" fill="rgb(40,48,49)" d="M 1437.69 769.469 C 1457.03 777.134 1479.24 788.123 1498.44 797.055 C 1527.9 810.796 1557.45 824.349 1587.08 837.716 C 1588.95 838.811 1590.6 839.272 1590.72 841.923 C 1591.8 866.135 1590.42 894.376 1590.16 918.502 L 1589.9 1002.19 C 1589.82 1019.85 1590.04 1040.06 1588.27 1057.5 C 1580.67 1060.93 1573.9 1063.72 1566.12 1066.74 C 1549.14 1074.27 1530.62 1083.44 1513.77 1090.26 C 1506.26 1093.06 1485.73 1103.26 1479.88 1102.5 C 1482.34 1104.6 1480.9 1103.8 1484.72 1104.19 C 1475.13 1109.15 1413.64 1139.67 1410.2 1144.77 L 1409.62 1146.1 C 1410.18 1174.03 1410.43 1201.97 1410.38 1229.91 C 1410.34 1244.7 1410.68 1266.99 1408.82 1281.1 C 1387.52 1274.63 1353.94 1255.94 1336.89 1251.87 C 1337.94 1225.72 1340.65 1198.25 1341.15 1172.5 C 1328.7 1171.64 1313.19 1165.1 1302.93 1158.44 C 1297.96 1156.66 1291.99 1153.98 1287.01 1151.89 C 1268.35 1144.98 1240.78 1129.62 1223.59 1120.16 C 1221.79 1120 1219.99 1119.84 1218.19 1119.66 L 1216.98 1117.65 C 1200.51 1111.3 1165.77 1098.19 1152.97 1084.43 C 1149.53 1080.74 1154.28 1072.08 1155.6 1067.27 L 1155.84 1066.39 C 1156.88 1065.89 1159.66 1064.25 1159.65 1062.98 C 1159.37 1007.24 1161.58 949.651 1159.73 894.063 C 1162.88 890.466 1164.21 889.371 1167.94 886.285 C 1162.74 877.259 1164.73 829.637 1165.01 818.323 C 1183.04 807.671 1226.54 787.723 1246.79 778.449 C 1246.32 797.875 1247.78 838.908 1245.18 855.555 C 1285.72 838.237 1326.02 820.369 1366.07 801.957 C 1389.77 791.25 1414.73 781.249 1437.69 769.469 z"/>
<path transform="translate(0,0)" fill="rgb(40,82,72)" d="M 1587.08 837.716 C 1588.95 838.811 1590.6 839.272 1590.72 841.923 C 1591.8 866.135 1590.42 894.376 1590.16 918.502 L 1589.9 1002.19 C 1589.82 1019.85 1590.04 1040.06 1588.27 1057.5 C 1580.67 1060.93 1573.9 1063.72 1566.12 1066.74 C 1554.92 1061.83 1527.9 1046.97 1518.76 1039.73 C 1521.71 1037.68 1525.96 1035.78 1529.27 1034.17 C 1534.27 1017.62 1533.03 956.062 1533.2 935.9 C 1533.4 911.684 1534.72 883.263 1535 859.085 C 1551.66 852.024 1568.88 847.334 1585.5 840.405 C 1586.03 839.508 1586.56 838.612 1587.08 837.716 z"/>
<path transform="translate(0,0)" fill="rgb(54,132,99)" d="M 1356.61 1117.77 C 1367.69 1123.46 1397.65 1130.41 1406.99 1141.16 C 1408.7 1146.07 1406.96 1147.25 1407.85 1151.35 L 1409.62 1146.1 C 1410.18 1174.03 1410.43 1201.97 1410.38 1229.91 C 1410.34 1244.7 1410.68 1266.99 1408.82 1281.1 C 1387.52 1274.63 1353.94 1255.94 1336.89 1251.87 C 1337.94 1225.72 1340.65 1198.25 1341.15 1172.5 C 1328.7 1171.64 1313.19 1165.1 1302.93 1158.44 L 1303.27 1157.59 C 1300.44 1153 1292.95 1156.07 1292.17 1148.71 C 1299.18 1138.16 1344.07 1121.46 1356.61 1117.77 z"/>
<path transform="translate(0,0)" fill="rgb(45,104,86)" d="M 1518.76 1039.73 C 1527.9 1046.97 1554.92 1061.83 1566.12 1066.74 C 1549.14 1074.27 1530.62 1083.44 1513.77 1090.26 C 1506.26 1093.06 1485.73 1103.26 1479.88 1102.5 C 1482.34 1104.6 1480.9 1103.8 1484.72 1104.19 C 1475.13 1109.15 1413.64 1139.67 1410.2 1144.77 L 1409.62 1146.1 L 1407.85 1151.35 C 1406.96 1147.25 1408.7 1146.07 1406.99 1141.16 C 1397.65 1130.41 1367.69 1123.46 1356.61 1117.77 C 1344.07 1121.46 1299.18 1138.16 1292.17 1148.71 C 1292.95 1156.07 1300.44 1153 1303.27 1157.59 L 1302.93 1158.44 C 1297.96 1156.66 1291.99 1153.98 1287.01 1151.89 C 1294.55 1138.96 1330.56 1123.56 1344.93 1118.85 C 1349.97 1117.69 1354.9 1115.96 1359.6 1113.78 C 1403.91 1093.2 1448.47 1073.08 1492.35 1051.57 C 1501.11 1047.28 1509.63 1043.04 1518.76 1039.73 z"/>
<path transform="translate(0,0)" fill="url(#Gradient3)" d="M 1367.09 1118.97 C 1380.39 1113.82 1394.4 1111.14 1407.22 1106.33 C 1421.91 1100.82 1435.69 1092.71 1451.01 1087.58 C 1460.57 1092.68 1470.19 1097.65 1479.88 1102.5 C 1482.34 1104.6 1480.9 1103.8 1484.72 1104.19 C 1475.13 1109.15 1413.64 1139.67 1410.2 1144.77 C 1410.17 1143.72 1410.1 1141.43 1409.51 1140.68 C 1403.22 1132.65 1376.42 1122.76 1367.09 1118.97 z"/>
<path transform="translate(0,0)" fill="rgb(71,155,110)" d="M 1165.01 818.323 C 1183.04 807.671 1226.54 787.723 1246.79 778.449 C 1246.32 797.875 1247.78 838.908 1245.18 855.555 C 1228.77 864.172 1203.84 868.337 1186.74 877.377 C 1183.32 879.185 1171.03 885.58 1167.94 886.285 C 1162.74 877.259 1164.73 829.637 1165.01 818.323 z"/>
<path transform="translate(0,0)" fill="url(#Gradient2)" d="M 1216.98 1117.65 C 1218.14 1117.88 1219.37 1118.27 1220.5 1118.46 C 1224.54 1119.14 1292.71 1093.14 1302.26 1088.92 C 1322.34 1121.48 1335.01 1107.97 1344.93 1118.85 C 1330.56 1123.56 1294.55 1138.96 1287.01 1151.89 C 1268.35 1144.98 1240.78 1129.62 1223.59 1120.16 C 1221.79 1120 1219.99 1119.84 1218.19 1119.66 L 1216.98 1117.65 z"/>
<path transform="translate(0,0)" fill="rgb(40,82,72)" d="M 1202.14 875.025 C 1204.94 874.723 1205.78 874.347 1208.38 875.371 L 1209.13 877.256 C 1207.88 881.089 1204.06 884.843 1201.31 888.018 C 1197.95 888.381 1197.76 888.669 1194.66 887.169 C 1191.79 881.066 1197.6 877.799 1202.14 875.025 z"/>
<path transform="translate(0,0)" fill="url(#Gradient1)" d="M 1025.59 1052.56 C 1031.8 1057.25 1058.93 1097.22 1065.56 1105.58 C 1082.41 1126.8 1099.5 1148.15 1115.17 1170.27 C 1128.52 1185.88 1144.81 1210.73 1160.05 1222.32 C 1166.37 1227.12 1202.41 1237.92 1207.64 1245.75 C 1211.51 1239.59 1265.81 1221.58 1276.64 1217.54 C 1277.56 1229.44 1279.1 1242.3 1279.69 1254 C 1280.56 1271.41 1280.33 1289.52 1280.83 1307.02 C 1254.84 1320.73 1233.25 1325.63 1203.77 1342.71 L 1202.87 1362.57 C 1184.89 1369.16 1169.46 1378.08 1150.78 1382.86 C 1123.9 1374.84 1092.05 1357.5 1065.43 1347.11 C 1053.77 1342.56 1042.8 1335.79 1030.62 1332.06 C 1021.99 1333.88 1008.78 1340.05 1000.3 1343.74 C 982.229 1351.62 964.217 1359.63 946.27 1367.79 C 935.987 1372.42 920.068 1380.13 909.671 1383.08 C 895.266 1380.27 866.684 1369.22 854.26 1361.35 C 855.018 1352.29 854.416 1340.4 854.128 1331.16 C 853.209 1301.76 854.283 1272.21 853.843 1242.85 C 904.826 1221.12 899.31 1225.99 931.379 1181.85 C 950.562 1155.84 969.422 1129.6 987.952 1103.12 C 998.234 1088.64 1014.04 1065.13 1025.59 1052.56 z"/>
<path transform="translate(0,0)" fill="rgb(243,243,222)" d="M 1207.64 1245.75 C 1211.51 1239.59 1265.81 1221.58 1276.64 1217.54 C 1277.56 1229.44 1279.1 1242.3 1279.69 1254 C 1280.56 1271.41 1280.33 1289.52 1280.83 1307.02 C 1254.84 1320.73 1233.25 1325.63 1203.77 1342.71 C 1203.98 1321.48 1204.59 1300.25 1205.59 1279.03 C 1205.98 1269.65 1206.2 1254.28 1207.64 1245.75 z"/>
<path transform="translate(0,0)" fill="rgb(54,132,99)" d="M 1029.51 999.679 C 1048.3 1007.34 1066.87 1023.14 1083.77 1029.76 C 1082.1 1050.77 1083.09 1079.89 1081.05 1098.57 C 1092.78 1092.39 1144.91 1068.05 1155.84 1066.39 L 1155.6 1067.27 C 1154.28 1072.08 1149.53 1080.74 1152.97 1084.43 C 1165.77 1098.19 1200.51 1111.3 1216.98 1117.65 L 1218.19 1119.66 C 1219.99 1119.84 1221.79 1120 1223.59 1120.16 C 1215.11 1122.1 1118.85 1166.81 1115.17 1170.27 C 1099.5 1148.15 1082.41 1126.8 1065.56 1105.58 C 1058.93 1097.22 1031.8 1057.25 1025.59 1052.56 C 1028.03 1041.83 1027.98 1013.17 1029.51 999.679 z"/>
<path transform="translate(0,0)" fill="rgb(123,176,131)" d="M 1479.88 1102.5 C 1485.73 1103.26 1506.26 1093.06 1513.77 1090.26 L 1514.27 1092.87 C 1523.37 1098.11 1527.71 1094.91 1531.62 1108.47 L 1528.88 1111.6 C 1532.03 1113.69 1556.36 1119.53 1562.26 1121.51 C 1576.25 1126.21 1580.84 1128.35 1593.88 1135.79 C 1565.7 1148.22 1536.91 1161.66 1507.81 1171.47 C 1503.58 1159.65 1489.04 1110.37 1484.72 1104.19 C 1480.9 1103.8 1482.34 1104.6 1479.88 1102.5 z"/>
<path transform="translate(0,0)" fill="rgb(40,48,49)" d="M 1180.26 717.186 L 1180.54 717.317 C 1183.26 721.091 1181.86 768.23 1181.22 775.768 C 1175.62 777.594 1172.94 777.949 1167.25 778.795 C 1165.31 774.143 1165.74 731.677 1164.63 721.553 C 1169.77 719.805 1175 718.55 1180.26 717.186 z"/>
<path transform="translate(0,0)" fill="rgb(123,176,131)" d="M 920.903 1561.61 C 927.02 1560.05 1011.73 1599.56 1021.81 1605.53 C 1023.84 1606.74 1026.56 1605.86 1028.72 1605.32 C 1058.36 1593.35 1087.42 1578.7 1116.79 1566.04 C 1121.16 1564.16 1125.07 1561.98 1129.69 1560.81 C 1130.75 1570.88 1135.79 1615.4 1134.44 1624.51 C 1134.04 1638.03 1133.77 1651.55 1133.66 1665.07 C 1146.22 1663.85 1155.41 1662.99 1168.16 1663.28 C 1180.7 1663.56 1194.97 1665.72 1207.03 1665.84 C 1195.82 1676.63 1143.58 1706.07 1128.97 1710.11 C 1135.51 1712.85 1157.19 1727.96 1168.14 1733.61 C 1170.82 1743.61 1188.16 1751.15 1197.32 1752.18 C 1198.2 1758.03 1198.91 1762.93 1200.31 1768.69 C 1183.03 1777.7 1162.45 1786.46 1144.36 1793.99 C 1105.75 1810.08 1067.38 1829.09 1028.8 1844.9 C 1017.1 1842.43 981.375 1826.22 968.572 1820.33 C 945.936 1809.91 916.774 1798.49 895.524 1787.04 C 900.797 1771.73 894.74 1717.03 899.951 1699.41 C 900.208 1698.54 903.865 1698.11 905.264 1697.82 C 907.903 1699.54 911.973 1699.94 915.219 1700.53 C 916.383 1691.49 916.691 1679.42 916.262 1670.29 C 915.827 1655.76 916.408 1640.78 916.778 1626.21 C 918.016 1604.67 919.391 1583.13 920.903 1561.61 z"/>
<path transform="translate(0,0)" fill="rgb(45,104,86)" d="M 1028.72 1605.32 C 1058.36 1593.35 1087.42 1578.7 1116.79 1566.04 C 1121.16 1564.16 1125.07 1561.98 1129.69 1560.81 C 1130.75 1570.88 1135.79 1615.4 1134.44 1624.51 C 1134.04 1638.03 1133.77 1651.55 1133.66 1665.07 C 1146.22 1663.85 1155.41 1662.99 1168.16 1663.28 C 1180.7 1663.56 1194.97 1665.72 1207.03 1665.84 C 1195.82 1676.63 1143.58 1706.07 1128.97 1710.11 C 1096.9 1721.03 1058.36 1744.6 1027.18 1754.64 L 1025.87 1675.03 C 1026.94 1672.78 1026.41 1673.47 1028.3 1671.94 C 1029.49 1663.48 1029.73 1614.32 1028.72 1605.32 z"/>
<path transform="translate(0,0)" fill="rgb(123,176,131)" d="M 1028.72 1605.32 C 1058.36 1593.35 1087.42 1578.7 1116.79 1566.04 C 1121.16 1564.16 1125.07 1561.98 1129.69 1560.81 C 1130.75 1570.88 1135.79 1615.4 1134.44 1624.51 C 1126.75 1626.92 1116.09 1632.02 1108.58 1635.42 L 1057.4 1658.89 C 1048.86 1662.85 1036.88 1668.97 1028.3 1671.94 C 1029.49 1663.48 1029.73 1614.32 1028.72 1605.32 z"/>
<path transform="translate(0,0)" fill="rgb(71,155,110)" d="M 920.903 1561.61 C 927.02 1560.05 1011.73 1599.56 1021.81 1605.53 C 1023.84 1606.74 1026.56 1605.86 1028.72 1605.32 C 1029.73 1614.32 1029.49 1663.48 1028.3 1671.94 C 1026.41 1673.47 1026.94 1672.78 1025.87 1675.03 C 1007.61 1671.3 935.467 1635.68 916.778 1626.21 C 918.016 1604.67 919.391 1583.13 920.903 1561.61 z"/>
<path transform="translate(0,0)" fill="rgb(54,132,99)" d="M 737.884 1621.75 C 770.498 1635.7 803.189 1654.02 834.499 1666.76 C 857.131 1660.86 889.832 1669.95 916.262 1670.29 C 916.691 1679.42 916.383 1691.49 915.219 1700.53 C 911.973 1699.94 907.903 1699.54 905.264 1697.82 C 903.865 1698.11 900.208 1698.54 899.951 1699.41 C 894.74 1717.03 900.797 1771.73 895.524 1787.04 L 794.042 1742.34 C 780.347 1736.24 751.779 1722.38 738.487 1718 C 736.612 1689.56 737.619 1650.56 737.884 1621.75 z"/>
<path transform="translate(0,0)" fill="rgb(45,104,86)" d="M 834.499 1666.76 C 857.131 1660.86 889.832 1669.95 916.262 1670.29 C 916.691 1679.42 916.383 1691.49 915.219 1700.53 C 911.973 1699.94 907.903 1699.54 905.264 1697.82 C 884.964 1692.11 869.047 1683.73 850.189 1674.75 C 845.493 1672.51 838.65 1668.38 834.499 1666.76 z"/>
<path transform="translate(0,0)" fill="rgb(54,132,99)" d="M 1207.03 1665.84 L 1316.38 1615.96 C 1316.06 1648.73 1317.11 1684.76 1316.05 1716.84 C 1282.55 1732.82 1247.51 1746.21 1214.05 1762.41 C 1210.09 1764.33 1204.28 1767.42 1200.31 1768.69 C 1198.91 1762.93 1198.2 1758.03 1197.32 1752.18 C 1188.16 1751.15 1170.82 1743.61 1168.14 1733.61 C 1157.19 1727.96 1135.51 1712.85 1128.97 1710.11 C 1143.58 1706.07 1195.82 1676.63 1207.03 1665.84 z"/>
<path transform="translate(0,0)" fill="rgb(71,155,110)" d="M 1168.14 1733.61 C 1175.41 1736.41 1191.91 1742.06 1196.84 1747.15 C 1197.13 1749.24 1197.29 1750.07 1197.32 1752.18 C 1188.16 1751.15 1170.82 1743.61 1168.14 1733.61 z"/>
</svg>